{"title":"Queen - Crazy Little Thing Called Love (h264/mp4)","uid":7541541,"size":99624607,"categoryP":"video","categoryS":"music_videos","magnet":"?xt=urn:btih:56fc862525e04f5898bfbbd083107249abda102e&amp;dn=Queen+-+Crazy+Little+Thing+Called+Love+%28h264%2Fmp4%29&amp;tr=udp%3A%2F%2Ftracker.openbittorrent.com%3A80&amp;tr=udp%3A%2F%2Fopen.demonii.com%3A1337&amp;tr=udp%3A%2F%2Ftracker.coppersurfer.tk%3A6969&amp;tr=udp%3A%2F%2Fexodus.desync.com%3A6969","seeders":0,"leechers":0,"uploader":"MusicVideos-HQ","files":1,"time":1345229703,"description":"General\n\nFormat                         : MPEG-4\nFormat profile                 : Base Media\nCodec ID                       : isom\nFile size                      : 98.1 MiB\nDuration                       : 4mn 28s\nOverall bit rate mode          : Variable\nOverall bit rate               : 3 065 Kbps\nEncoded date                   : UTC 2012-08-16 04:17:46\nTagged date                    : UTC 2012-08-16 04:17:46\n\nVideo\nID                             : 1\nFormat                         : AVC\nFormat/Info                    : Advanced Video Codec\nFormat profile                 : &lt;a class=&quot;__cf_email__&quot; href=&quot;/cdn-cgi/l/email-protection&quot; data-cfemail=&quot;a6eecfc1cee6ea958896&quot;&gt;[email&amp;#160;protected]&lt;/a&gt;&lt;script data-cfhash='f9e31' type=&quot;text/javascript&quot;&gt;\n/* &lt;![CDATA[ */!function(){try{var t=&quot;currentScript&quot;in document?document.currentScript:function(){for(var t=document.getElementsByTagName(&quot;script&quot;),e=t.length;e--;)if(t[e].getAttribute(&quot;data-cfhash&quot;))return t[e]}();if(t&amp;&amp;t.previousSibling){var e,r,n,i,c=t.previousSibling,a=c.getAttribute(&quot;data-cfemail&quot;);if(a){for(e=&quot;&quot;,r=parseInt(a.substr(0,2),16),n=2;a.length-n;n+=2)i=parseInt(a.substr(n,2),16)^r,e+=String.fromCharCode(i);e=document.createTextNode(e),c.parentNode.replaceChild(e,c)}t.parentNode.removeChild(t);}}catch(u){}}()/* ]]&gt; */&lt;/script&gt;\nFormat settings, CABAC         : Yes\nFormat settings, ReFrames      : 2 frames\nCodec ID                       : avc1\nCodec ID/Info                  : Advanced Video Coding\nDuration                       : 4mn 28s\nBit rate                       : 2 744 Kbps\nMaximum bit rate               : 7 329 Kbps\nWidth                          : 720 pixels\nHeight                         : 480 pixels\nDisplay aspect ratio           : 16:9\nOriginal display aspect ratio  : 16:9\nFrame rate mode                : Constant\nFrame rate                     : 23.976 fps\nStandard                       : NTSC\nColor space                    : YUV\nChroma subsampling             : 4:2:0\nBit depth                      : 8 bits\nScan type                      : Progressive\nBits/(Pixel*Frame)             : 0.331\nStream size                    : 91.8 MiB (94%)\n\n\nAudio\nID                             : 2\nFormat                         : AAC\nFormat/Info                    : Advanced Audio Codec\nFormat profile                 : LC\nCodec ID                       : 40\nDuration                       : 4mn 28s\nBit rate mode                  : Variable\nBit rate                       : 192 Kbps\nMaximum bit rate               : 241 Kbps\nChannel(s)                     : 2 channels\nChannel positions              : Front: L R\nSampling rate                  : 44.1 KHz\nCompression mode               : Lossy\nDelay relative to video        : -833ms\nStream size                    : 6.14 MiB (6%)","torrent":{"xt":"urn:btih:56fc862525e04f5898bfbbd083107249abda102e","amp;dn":"Queen+-+Crazy+Little+Thing+Called+Love+%28h264%2Fmp4%29","amp;tr":["udp%3A%2F%2Ftracker.openbittorrent.com%3A80","udp%3A%2F%2Fopen.demonii.com%3A1337","udp%3A%2F%2Ftracker.coppersurfer.tk%3A6969","udp%3A%2F%2Fexodus.desync.com%3A6969"],"infoHash":"56fc862525e04f5898bfbbd083107249abda102e","infoHashBuffer":{"type":"Buffer","data":[86,252,134,37,37,224,79,88,152,191,187,208,131,16,114,73,171,218,16,46]},"announce":[],"urlList":[]}}